<svg width="30" height="30" viewBox="0 0 30 30" fill="none" xmlns="http://www.w3.org/2000/svg">
<path d="M27.1667 27.1667H4.92716C4.32341 27.1667 3.83341 27.6567 3.83341 28.2605C3.83341 28.8642 4.32341 29.3542 4.92716 29.3542H27.8959C28.6688 29.3542 29.3542 28.6688 29.3542 27.8959V4.92716C29.3542 4.32341 28.8642 3.83341 28.2605 3.83341C27.6567 3.83341 27.1667 4.32341 27.1667 4.92716V27.1667ZM25.7084 2.37508C25.7084 1.678 25.1557 0.916748 24.2501 0.916748H2.37508C1.47091 0.916748 0.916748 1.67362 0.916748 2.37508V24.2501C0.916748 25.1557 1.67508 25.7084 2.37508 25.7084H24.2501C24.9472 25.7084 25.7084 25.1557 25.7084 24.2501V2.37508ZM13.3082 11.7624L16.5442 8.52487C16.7572 8.31196 17.0372 8.2055 17.3172 8.2055C17.9063 8.2055 18.4124 8.67946 18.4124 9.29925C18.4124 9.58071 18.3059 9.85925 18.093 10.0736L14.8555 13.3111L18.0959 16.5515C18.3103 16.7659 18.4167 17.0459 18.4167 17.3245C18.4167 17.9472 17.9078 18.4197 17.323 18.4197C17.043 18.4197 16.7615 18.3132 16.5486 18.1003L13.3082 14.8584L10.0663 18.1003C9.85342 18.3132 9.57341 18.4197 9.29341 18.4197C8.70862 18.4197 8.19821 17.9472 8.19821 17.3245C8.19821 17.0459 8.30466 16.7659 8.51904 16.5515L11.7595 13.3111L8.52342 10.0736C8.3105 9.85925 8.20404 9.58071 8.20404 9.29925C8.20404 8.67946 8.70862 8.2055 9.29779 8.2055C9.57779 8.2055 9.85779 8.31196 10.0707 8.52487L13.3082 11.7624Z" fill="white"/>
</svg>
