<svg width="63" height="63" viewBox="0 0 63 63" fill="none" xmlns="http://www.w3.org/2000/svg">
<path fill-rule="evenodd" clip-rule="evenodd" d="M23.142 3.46762C25.2814 1.32562 28.2371 0 31.5 0C34.7839 0 37.758 1.344 39.9 3.51225C50.547 4.32075 54.8284 8.07713 59.2778 25.788C61.0208 27.0034 63 29.5575 63 34.9466C63 39.5798 60.4118 45.423 54.7601 47.8249C48.5966 57.6187 40.3646 63 31.5 63C22.6354 63 14.4034 57.6187 8.23725 47.8249C2.58562 45.423 0 39.5798 0 34.9466C0 29.5575 1.97663 27.0034 3.71963 25.788C8.26612 7.99313 12.5921 4.22888 23.142 3.46762ZM37.8 47.25H25.2C25.2105 47.2815 26.9902 52.1955 31.5 52.1955C36.1777 52.1955 37.7895 47.2815 37.8 47.25ZM51.5419 18.375H41.3201C39.2018 21.5408 35.5924 23.625 31.5 23.625C27.4076 23.625 23.7983 21.5408 21.6799 18.375H11.382C10.7992 20.0314 10.3005 21.798 9.8595 23.625C9.38963 25.5833 12.39 26.1292 12.2666 28.1741C12.1511 30.0694 10.2716 30.6758 8.5365 29.9093C8.0535 29.694 7.30538 29.7019 6.76988 30.0484C4.14488 31.7572 4.42575 41.0314 10.8491 43.2049C13.4741 44.0947 17.619 52.0275 22.1051 44.3389C23.6565 41.6824 28.5495 41.3831 31.5 43.4936C34.4479 41.3831 39.3435 41.6824 40.8923 44.3389C45.3784 52.0275 49.5232 44.0947 52.1482 43.2049C58.5742 41.0314 58.8525 31.7572 56.2275 30.0484C55.6106 29.6494 54.8336 29.7465 54.4635 29.9093C52.7284 30.6784 50.8935 30.156 50.8568 28.2581C50.8148 26.1109 53.781 25.9718 53.193 23.625C52.752 21.8689 52.1719 20.0655 51.5419 18.375ZM41.3438 23.625C38.3932 23.625 35.847 25.2761 34.5004 27.6832C33.5212 27.3787 32.5474 27.2265 31.5 27.2265C30.4526 27.2265 29.4788 27.3787 28.4996 27.6832C27.153 25.2761 24.6068 23.625 21.6562 23.625C17.3145 23.625 13.7812 27.1583 13.7812 31.5C13.7812 35.8418 17.3145 39.375 21.6562 39.375C24.8876 39.375 27.6544 37.4115 28.8671 34.6211C29.5103 33.1354 29.9014 31.206 31.5 31.206C33.0986 31.206 33.4897 33.1354 34.1329 34.6211C35.3456 37.4115 38.1124 39.375 41.3438 39.375C45.6855 39.375 49.2188 35.8418 49.2188 31.5C49.2188 27.1583 45.6855 23.625 41.3438 23.625ZM41.3438 35.4375C39.1702 35.4375 37.4062 33.6735 37.4062 31.5C37.4062 29.3265 39.1702 27.5625 41.3438 27.5625C43.5173 27.5625 45.2812 29.3265 45.2812 31.5C45.2812 33.6735 43.5173 35.4375 41.3438 35.4375ZM21.6562 35.4375C19.4827 35.4375 17.7188 33.6735 17.7188 31.5C17.7188 29.3265 19.4827 27.5625 21.6562 27.5625C23.8298 27.5625 25.5938 29.3265 25.5938 31.5C25.5938 33.6735 23.8298 35.4375 21.6562 35.4375ZM31.5 5.25C35.1225 5.25 38.0625 8.19 38.0625 11.8125C38.0625 15.435 35.1225 18.375 31.5 18.375C27.8775 18.375 24.9375 15.435 24.9375 11.8125C24.9375 8.19 27.8775 5.25 31.5 5.25Z" fill="white"/>
</svg>
