<svg width="35" height="35" viewBox="0 0 35 35" fill="none" xmlns="http://www.w3.org/2000/svg">
<path d="M17.5 2.91667C25.5413 2.91667 32.0833 9.45875 32.0833 17.5C32.0833 25.5413 25.5413 32.0833 17.5 32.0833C9.45875 32.0833 2.91667 25.5413 2.91667 17.5C2.91667 9.45875 9.45875 2.91667 17.5 2.91667ZM17.5 0C7.83563 0 0 7.83563 0 17.5C0 27.1644 7.83563 35 17.5 35C27.1644 35 35 27.1644 35 17.5C35 7.83563 27.1644 0 17.5 0ZM11.6754 18.9058L16.205 23.434L10.2083 24.7917L11.6754 18.9058ZM26.25 13.4167L17.7333 22.0515L13.0638 17.3819L21.5819 8.75L26.25 13.4167V13.4167Z" fill="white"/>
</svg>
