<svg width="209" height="21" viewBox="0 0 209 21" fill="none" xmlns="http://www.w3.org/2000/svg">
<path d="M0.565195 20.468C0.355864 20.468 0.209332 20.3949 0.125599 20.2489C0.0418663 20.1028 0 19.9464 0 19.7794C0.0209332 19.4247 0.104666 19.2265 0.251198 19.1848C0.39773 19.1431 0.575662 19.1222 0.784993 19.1222C1.45485 19.1222 1.92585 19.0075 2.19798 18.7779C2.47011 18.5276 2.63758 18.225 2.70038 17.8703C2.78411 17.4948 2.82598 17.1088 2.82598 16.7124V4.28763C2.82598 3.89121 2.78411 3.51565 2.70038 3.16095C2.63758 2.7854 2.47011 2.48286 2.19798 2.25335C1.92585 2.00298 1.45485 1.87779 0.784993 1.87779C0.575662 1.87779 0.39773 1.85693 0.251198 1.8152C0.104666 1.77347 0.0209332 1.57526 0 1.22057C0 1.05365 0.0418663 0.897169 0.125599 0.751117C0.209332 0.605067 0.355864 0.532042 0.565195 0.532042C1.23506 0.552906 1.86305 0.573771 2.44918 0.594635C3.03531 0.615499 3.64237 0.625931 4.27036 0.625931C5.54729 0.625931 6.85561 0.594635 8.19533 0.532042C8.40466 0.532042 8.5512 0.605067 8.63493 0.751117C8.71866 0.897169 8.76053 1.05365 8.76053 1.22057C8.73959 1.57526 8.65586 1.77347 8.50933 1.8152C8.38373 1.85693 8.2058 1.87779 7.97553 1.87779C7.32661 1.87779 6.85561 2.00298 6.56254 2.25335C6.29041 2.48286 6.12295 2.7854 6.06015 3.16095C5.99735 3.51565 5.95548 3.89121 5.93455 4.28763V9.82712H15.7941V4.28763C15.7941 3.89121 15.7522 3.51565 15.6685 3.16095C15.6057 2.7854 15.4382 2.48286 15.1661 2.25335C14.8939 2.00298 14.4229 1.87779 13.7531 1.87779C13.5438 1.87779 13.3554 1.85693 13.1879 1.8152C13.0414 1.77347 12.9576 1.57526 12.9367 1.22057C12.9367 1.05365 12.9786 0.897169 13.0623 0.751117C13.167 0.605067 13.3135 0.532042 13.5019 0.532042C14.8625 0.594635 16.1709 0.625931 17.4269 0.625931C18.0548 0.625931 18.6619 0.615499 19.248 0.594635C19.8551 0.573771 20.4936 0.552906 21.1634 0.532042C21.3518 0.532042 21.4879 0.605067 21.5716 0.751117C21.6763 0.897169 21.7286 1.05365 21.7286 1.22057C21.7077 1.57526 21.624 1.77347 21.4774 1.8152C21.3309 1.85693 21.153 1.87779 20.9436 1.87779C20.2947 1.87779 19.8237 2.00298 19.5306 2.25335C19.2376 2.48286 19.0596 2.7854 18.9968 3.16095C18.934 3.51565 18.8922 3.89121 18.8712 4.28763V16.7124C18.8922 17.1088 18.934 17.4948 18.9968 17.8703C19.0596 18.225 19.2376 18.5276 19.5306 18.7779C19.8237 19.0075 20.2947 19.1222 20.9436 19.1222C21.153 19.1222 21.3309 19.1431 21.4774 19.1848C21.624 19.2265 21.7077 19.4247 21.7286 19.7794C21.7286 19.9464 21.6763 20.1028 21.5716 20.2489C21.4879 20.3949 21.3518 20.468 21.1634 20.468C20.4936 20.4262 19.8551 20.3949 19.248 20.3741C18.641 20.3741 18.0234 20.3741 17.3955 20.3741C16.1604 20.3741 14.8625 20.4054 13.5019 20.468C13.3135 20.468 13.167 20.3949 13.0623 20.2489C12.9786 20.1028 12.9367 19.9464 12.9367 19.7794C12.9576 19.4247 13.0414 19.2265 13.1879 19.1848C13.3554 19.1431 13.5438 19.1222 13.7531 19.1222C14.4229 19.1222 14.8939 19.0075 15.1661 18.7779C15.4382 18.5276 15.6057 18.225 15.6685 17.8703C15.7522 17.4948 15.7941 17.1088 15.7941 16.7124V11.1729H5.93455V16.7124C5.95548 17.1088 5.99735 17.4948 6.06015 17.8703C6.12295 18.225 6.29041 18.5276 6.56254 18.7779C6.85561 19.0075 7.32661 19.1222 7.97553 19.1222C8.2058 19.1222 8.38373 19.1431 8.50933 19.1848C8.65586 19.2265 8.73959 19.4247 8.76053 19.7794C8.76053 19.9464 8.71866 20.1028 8.63493 20.2489C8.5512 20.3949 8.40466 20.468 8.19533 20.468C6.85561 20.4054 5.55775 20.3741 4.30176 20.3741C3.67377 20.3741 3.05624 20.3741 2.44918 20.3741C1.86305 20.3949 1.23506 20.4262 0.565195 20.468Z" fill="white"/>
<path d="M34.0599 21C32.5318 21 31.1502 20.7183 29.9151 20.155C28.6801 19.5917 27.6229 18.8301 26.7437 17.8703C25.8645 16.9106 25.1947 15.8256 24.7342 14.6155C24.2736 13.3845 24.0434 12.1013 24.0434 10.766C24.0434 9.03428 24.3364 7.50075 24.9226 6.16542C25.5296 4.8301 26.3251 3.70343 27.3089 2.78539C28.2928 1.86736 29.3709 1.17884 30.5431 0.719821C31.7363 0.23994 32.9086 0 34.0599 0C35.6299 0 37.0324 0.281669 38.2674 0.845008C39.5234 1.40835 40.591 2.1699 41.4702 3.12966C42.3494 4.08942 43.0193 5.1848 43.4798 6.4158C43.9403 7.62593 44.1706 8.88823 44.1706 10.2027C44.1706 11.9344 43.8671 13.468 43.26 14.8033C42.6529 16.1386 41.847 17.2653 40.8422 18.1833C39.8374 19.1013 38.7384 19.8003 37.5453 20.2802C36.373 20.7601 35.2112 21 34.0599 21ZM34.0285 19.623C35.5147 19.623 36.7289 19.1848 37.6709 18.3085C38.6128 17.4322 39.3036 16.2847 39.7432 14.8659C40.2038 13.4262 40.434 11.8718 40.434 10.2027C40.434 8.63785 40.1933 7.18778 39.7118 5.85246C39.2513 4.49627 38.55 3.41133 37.6081 2.59762C36.6661 1.76304 35.4729 1.34575 34.0285 1.34575C32.5632 1.34575 31.3595 1.7839 30.4175 2.66021C29.4965 3.51565 28.8161 4.65276 28.3765 6.07154C27.9369 7.46945 27.7171 9.00298 27.7171 10.6721C27.7171 12.237 27.9369 13.7079 28.3765 15.0849C28.8371 16.4411 29.5383 17.5365 30.4803 18.3711C31.4223 19.2057 32.605 19.623 34.0285 19.623Z" fill="white"/>
<path d="M53.9784 21C51.8013 21 50.1266 20.6244 48.9544 19.8733C47.7821 19.1013 47.196 17.9747 47.196 16.4933C47.196 15.7422 47.4472 15.1267 47.9496 14.6468C48.4729 14.1461 49.1428 13.8957 49.9592 13.8957C50.5034 13.9165 50.8802 14.0522 51.0896 14.3025C51.3198 14.5529 51.435 14.7407 51.435 14.8659C51.435 14.9076 51.3408 14.9806 51.1524 15.0849C50.964 15.1684 50.7756 15.3353 50.5872 15.5857C50.3988 15.8152 50.3046 16.1803 50.3046 16.6811C50.3046 17.62 50.5976 18.3711 51.1838 18.9344C51.7699 19.4769 52.7014 19.7481 53.9784 19.7481C54.8785 19.7481 55.6425 19.5812 56.2705 19.2474C56.9195 18.8927 57.4114 18.4441 57.7463 17.9016C58.0813 17.3383 58.2487 16.7645 58.2487 16.1803C58.2487 15.304 57.9975 14.5842 57.4951 14.0209C56.9927 13.4575 56.3333 12.9776 55.5169 12.5812C54.7215 12.1639 53.8737 11.7675 52.9736 11.392C52.0734 11.0164 51.2152 10.5887 50.3988 10.1088C49.6033 9.62891 48.9439 9.03428 48.4206 8.32489C47.8973 7.59464 47.6251 6.68703 47.6042 5.60209C47.5833 4.28763 47.8659 3.22355 48.452 2.40984C49.0381 1.57526 49.8545 0.970194 50.9012 0.594635C51.9478 0.198212 53.1096 0 54.3865 0C55.3285 0 56.2496 0.135619 57.1497 0.406856C58.0708 0.678093 58.8244 1.10581 59.4105 1.69002C60.0176 2.25335 60.3211 3.00447 60.3211 3.94337C60.3211 4.69449 60.0594 5.32042 59.5361 5.82116C59.0337 6.30104 58.3743 6.54098 57.5579 6.54098C57.0137 6.49925 56.6264 6.36364 56.3961 6.13413C56.1868 5.88376 56.0821 5.69598 56.0821 5.57079C56.0821 5.5082 56.2077 5.43517 56.4589 5.35171C56.7101 5.24739 56.9613 5.08048 57.2125 4.85097C57.4637 4.6006 57.5893 4.23547 57.5893 3.75559C57.5893 2.96274 57.2858 2.35768 56.6787 1.94039C56.0717 1.50224 55.3181 1.28316 54.4179 1.28316C53.0573 1.28316 52.063 1.60656 51.435 2.25335C50.8279 2.87928 50.5244 3.58867 50.5244 4.38152C50.5244 5.1535 50.7337 5.77943 51.1524 6.25931C51.571 6.7392 52.199 7.20864 53.0364 7.66766C53.9783 8.16841 54.9308 8.63785 55.8937 9.07601C56.8567 9.49329 57.7463 9.96274 58.5627 10.4844C59.4 11.006 60.0699 11.6632 60.5723 12.456C61.0747 13.228 61.3259 14.2295 61.3259 15.4605C61.3259 16.5246 60.991 17.4739 60.3211 18.3085C59.6722 19.1431 58.793 19.8003 57.6835 20.2802C56.5741 20.7601 55.339 21 53.9784 21Z" fill="white"/>
<path d="M64.2225 20.468C64.0341 20.468 63.8876 20.3949 63.7829 20.2489C63.6992 20.1028 63.6573 19.9464 63.6573 19.7794C63.6782 19.4247 63.762 19.2265 63.9085 19.1848C64.076 19.1431 64.2644 19.1222 64.4737 19.1222C65.1436 19.1222 65.6146 19.0075 65.8867 18.7779C66.1588 18.5276 66.3263 18.225 66.3891 17.8703C66.4728 17.4948 66.5147 17.1088 66.5147 16.7124V4.28763C66.5147 3.89121 66.4728 3.51565 66.3891 3.16095C66.3263 2.7854 66.1588 2.48286 65.8867 2.25335C65.6146 2.00298 65.1436 1.87779 64.4737 1.87779C64.2644 1.87779 64.076 1.85693 63.9085 1.8152C63.762 1.77347 63.6782 1.57526 63.6573 1.22057C63.6573 1.05365 63.6992 0.897169 63.7829 0.751117C63.8876 0.605067 64.0341 0.532042 64.2225 0.532042C64.8924 0.552906 65.5308 0.573771 66.1379 0.594635C66.745 0.615499 67.3625 0.625931 67.9905 0.625931H72.7004C73.0982 0.625931 73.611 0.657228 74.239 0.719821C74.888 0.782415 75.5683 0.907601 76.28 1.09538C77.0127 1.28316 77.7035 1.58569 78.3524 2.00298C79.0013 2.42027 79.5247 2.97317 79.9224 3.6617C80.341 4.35022 80.5504 5.21609 80.5504 6.25931C80.5504 7.23994 80.3201 8.12668 79.8596 8.91952C79.42 9.71237 78.8234 10.3905 78.0698 10.9538C77.3371 11.5171 76.4998 11.9553 75.5578 12.2683C74.6368 12.5604 73.6948 12.7064 72.7318 12.7064C72.2713 12.7064 71.7689 12.6751 71.2247 12.6125C70.6804 12.5499 70.1361 12.4143 69.5919 12.2057V16.7124C69.6128 17.1088 69.6547 17.4948 69.7175 17.8703C69.7803 18.225 69.9477 18.5276 70.2199 18.7779C70.5129 19.0075 70.9839 19.1222 71.6329 19.1222C71.8631 19.1222 72.0515 19.1431 72.198 19.1848C72.3446 19.2265 72.4283 19.4247 72.4492 19.7794C72.4492 19.9464 72.3969 20.1028 72.2922 20.2489C72.2085 20.3949 72.0725 20.468 71.8841 20.468C70.5443 20.4054 69.236 20.3741 67.9591 20.3741C67.3311 20.3741 66.7136 20.3741 66.1065 20.3741C65.5204 20.3949 64.8924 20.4262 64.2225 20.468ZM71.8213 11.2981C72.3027 11.2981 72.8365 11.225 73.4226 11.079C74.0297 10.9121 74.6054 10.6513 75.1496 10.2966C75.7148 9.92101 76.1753 9.42027 76.5312 8.79434C76.8871 8.14754 77.065 7.33383 77.065 6.3532C77.065 5.28912 76.8557 4.45455 76.437 3.84948C76.0183 3.22355 75.495 2.76453 74.867 2.47243C74.26 2.18033 73.6529 1.99255 73.0458 1.90909C72.4388 1.82563 71.9469 1.7839 71.5701 1.7839C71.0677 1.7839 70.6699 1.83606 70.3769 1.94039C70.0838 2.04471 69.8745 2.27422 69.7489 2.62891C69.6442 2.96274 69.5919 3.48435 69.5919 4.19374V10.9538C69.8012 11.0373 70.1047 11.1207 70.5025 11.2042C70.9002 11.2668 71.3398 11.2981 71.8213 11.2981Z" fill="white"/>
<path d="M82.9581 20.468C82.7488 20.468 82.6022 20.3949 82.5185 20.2489C82.4348 20.1028 82.3929 19.9464 82.3929 19.7794C82.4138 19.4247 82.4976 19.2265 82.6441 19.1848C82.7906 19.1431 82.9686 19.1222 83.1779 19.1222C83.8478 19.1222 84.3188 19.0075 84.5909 18.7779C84.863 18.5276 85.0305 18.225 85.0933 17.8703C85.177 17.4948 85.2293 17.1088 85.2503 16.7124V4.28763C85.2293 3.89121 85.177 3.51565 85.0933 3.16095C85.0305 2.7854 84.863 2.48286 84.5909 2.25335C84.3188 2.00298 83.8478 1.87779 83.1779 1.87779C82.9686 1.87779 82.7906 1.85693 82.6441 1.8152C82.4976 1.77347 82.4138 1.57526 82.3929 1.22057C82.3929 1.05365 82.4348 0.897169 82.5185 0.751117C82.6022 0.605067 82.7488 0.532042 82.9581 0.532042C83.628 0.552906 84.256 0.573771 84.8421 0.594635C85.4492 0.615499 86.0667 0.625931 86.6947 0.625931C87.9716 0.625931 89.2799 0.594635 90.6196 0.532042C90.808 0.532042 90.9441 0.605067 91.0278 0.751117C91.1325 0.897169 91.1848 1.05365 91.1848 1.22057C91.1639 1.57526 91.0802 1.77347 90.9336 1.8152C90.7871 1.85693 90.5987 1.87779 90.3684 1.87779C89.7195 1.87779 89.2485 2.00298 88.9554 2.25335C88.6833 2.48286 88.5159 2.7854 88.4531 3.16095C88.3903 3.51565 88.3484 3.89121 88.3275 4.28763V16.7124C88.3484 17.1088 88.3903 17.4948 88.4531 17.8703C88.5159 18.225 88.6833 18.5276 88.9554 18.7779C89.2485 19.0075 89.7195 19.1222 90.3684 19.1222C90.5987 19.1222 90.7871 19.1431 90.9336 19.1848C91.0802 19.2265 91.1639 19.4247 91.1848 19.7794C91.1848 19.9464 91.1325 20.1028 91.0278 20.2489C90.9441 20.3949 90.808 20.468 90.6196 20.468C89.2799 20.4054 87.9821 20.3741 86.7261 20.3741C86.0981 20.3741 85.4805 20.3741 84.8735 20.3741C84.2664 20.3949 83.628 20.4262 82.9581 20.468Z" fill="white"/>
<path d="M97.7643 20.468C97.555 20.468 97.4084 20.3949 97.3247 20.2489C97.241 20.1028 97.1991 19.9464 97.1991 19.7794C97.22 19.4247 97.3038 19.2265 97.4503 19.1848C97.5968 19.1431 97.7748 19.1222 97.9841 19.1222C98.654 19.1222 99.125 19.0075 99.3971 18.7779C99.6692 18.5276 99.8367 18.225 99.8995 17.8703C99.9832 17.4948 100.025 17.1088 100.025 16.7124V1.7839H97.8585C97.1468 1.80477 96.592 1.96125 96.1943 2.25335C95.7966 2.52459 95.5035 2.96274 95.3151 3.56781C95.1267 4.15201 94.9593 4.91356 94.8127 5.85246C94.7918 6.04024 94.6557 6.18629 94.4045 6.29061C94.1743 6.37407 93.944 6.4158 93.7137 6.4158C93.5672 6.4158 93.3997 6.36364 93.2113 6.25931C93.0439 6.15499 92.9601 5.99851 92.9601 5.78987L93.0543 1.37705C93.0543 1.08495 93.1381 0.886735 93.3055 0.782414C93.473 0.678092 93.6719 0.625931 93.9021 0.625931H109.257C109.487 0.625931 109.675 0.678092 109.822 0.782414C109.989 0.886735 110.073 1.08495 110.073 1.37705L110.199 5.78987C110.199 5.99851 110.104 6.15499 109.916 6.25931C109.749 6.36364 109.581 6.4158 109.414 6.4158C109.204 6.4158 108.984 6.37407 108.754 6.29061C108.524 6.18629 108.388 6.04024 108.346 5.85246C108.199 4.91356 108.022 4.15201 107.812 3.56781C107.624 2.96274 107.331 2.52459 106.933 2.25335C106.556 1.96125 106.001 1.80477 105.269 1.7839H103.134V16.7124C103.155 17.1088 103.196 17.4948 103.259 17.8703C103.322 18.225 103.49 18.5276 103.762 18.7779C104.055 19.0075 104.526 19.1222 105.175 19.1222C105.384 19.1222 105.562 19.1431 105.708 19.1848C105.855 19.2265 105.939 19.4247 105.96 19.7794C105.96 19.9464 105.918 20.1028 105.834 20.2489C105.75 20.3949 105.604 20.468 105.394 20.468C104.725 20.4262 104.086 20.3949 103.479 20.3741C102.893 20.3741 102.296 20.3741 101.689 20.3741C100.433 20.3741 99.125 20.4054 97.7643 20.468Z" fill="white"/>
<path d="M109.657 20.468C109.448 20.468 109.301 20.3949 109.218 20.2489C109.134 20.1028 109.092 19.9464 109.092 19.7794C109.113 19.4247 109.197 19.2265 109.343 19.1848C109.49 19.1431 109.668 19.1222 109.877 19.1222C110.442 19.1222 110.871 19.0075 111.164 18.7779C111.457 18.5484 111.688 18.2459 111.855 17.8703C112.044 17.4948 112.222 17.1088 112.389 16.7124L117.884 3.75559C118.093 3.25484 118.135 2.87928 118.01 2.62891C117.884 2.35767 117.675 2.16989 117.382 2.06557C117.088 1.94039 116.764 1.8465 116.408 1.7839C116.094 1.72131 115.885 1.66915 115.78 1.62742C115.675 1.56483 115.623 1.37705 115.623 1.06408C115.623 0.709389 115.749 0.52161 116 0.500744C116.251 0.459016 116.544 0.438152 116.879 0.438152C117.737 0.438152 118.47 0.52161 119.077 0.688525C119.684 0.855439 120.208 1.17884 120.647 1.65872C121.087 2.11773 121.495 2.81669 121.872 3.75559L127.147 16.7124C127.293 17.0671 127.45 17.4322 127.618 17.8078C127.785 18.1833 128.005 18.4963 128.277 18.7466C128.57 18.9762 128.937 19.1013 129.376 19.1222C129.607 19.1222 129.784 19.1431 129.91 19.1848C130.057 19.2265 130.14 19.4247 130.161 19.7794C130.161 19.9464 130.109 20.1028 130.004 20.2489C129.92 20.3949 129.784 20.468 129.596 20.468C128.926 20.4262 128.34 20.3949 127.838 20.3741C127.335 20.3741 126.77 20.3741 126.142 20.3741C124.907 20.3741 123.609 20.4054 122.248 20.468C122.039 20.468 121.893 20.3949 121.809 20.2489C121.725 20.1028 121.683 19.9464 121.683 19.7794C121.704 19.4247 121.788 19.2265 121.934 19.1848C122.081 19.1431 122.259 19.1222 122.468 19.1222C123.494 19.1222 124.049 18.9344 124.132 18.5589C124.237 18.1833 124.143 17.5678 123.85 16.7124L122.782 14.1148H115.027C114.713 14.9076 114.482 15.4814 114.336 15.8361C114.21 16.1908 114.126 16.4203 114.085 16.5246C114.064 16.6289 114.043 16.6915 114.022 16.7124C113.791 17.4218 113.666 17.9538 113.645 18.3085C113.645 18.6423 113.812 18.8614 114.147 18.9657C114.503 19.07 115.089 19.1222 115.906 19.1222C116.136 19.1222 116.314 19.1431 116.44 19.1848C116.586 19.2265 116.67 19.4247 116.691 19.7794C116.691 19.9464 116.638 20.1028 116.534 20.2489C116.45 20.3949 116.314 20.468 116.126 20.468C115.456 20.4262 114.87 20.3949 114.367 20.3741C113.886 20.3741 113.331 20.3741 112.703 20.3741C112.284 20.3741 111.928 20.3741 111.635 20.3741C111.363 20.3949 111.081 20.4054 110.788 20.4054C110.495 20.4262 110.118 20.4471 109.657 20.468ZM115.623 12.769H122.217L119.046 4.72578H118.952L115.623 12.769Z" fill="white"/>
<path d="M130.61 20.468C130.421 20.468 130.285 20.3949 130.201 20.2489C130.118 20.1028 130.076 19.9464 130.076 19.7794C130.097 19.4247 130.181 19.2265 130.327 19.1848C130.474 19.1431 130.652 19.1222 130.861 19.1222C131.531 19.1222 132.002 19.0075 132.274 18.7779C132.546 18.5276 132.713 18.225 132.776 17.8703C132.86 17.4948 132.902 17.1088 132.902 16.7124V4.28763C132.902 3.89121 132.86 3.51565 132.776 3.16095C132.713 2.7854 132.546 2.48286 132.274 2.25335C132.002 2.00298 131.531 1.87779 130.861 1.87779C130.652 1.87779 130.474 1.85693 130.327 1.8152C130.181 1.77347 130.097 1.57526 130.076 1.22057C130.076 1.05365 130.118 0.897169 130.201 0.751117C130.285 0.605067 130.421 0.532042 130.61 0.532042C131.3 0.552906 131.939 0.573771 132.525 0.594635C133.111 0.615499 133.718 0.625931 134.346 0.625931C135.623 0.625931 136.931 0.594635 138.271 0.532042C138.481 0.532042 138.627 0.605067 138.711 0.751117C138.795 0.897169 138.836 1.05365 138.836 1.22057C138.815 1.57526 138.732 1.77347 138.585 1.8152C138.439 1.85693 138.261 1.87779 138.051 1.87779C137.402 1.87779 136.931 2.00298 136.638 2.25335C136.366 2.48286 136.199 2.7854 136.136 3.16095C136.073 3.51565 136.031 3.89121 136.01 4.28763V17.1818C136.031 17.4531 136.073 17.7452 136.136 18.0581C136.199 18.3711 136.377 18.6319 136.67 18.8405C136.984 19.0492 137.497 19.1431 138.208 19.1222H141.034C141.767 19.1013 142.322 18.9866 142.699 18.7779C143.096 18.5484 143.41 18.1729 143.641 17.6513C143.871 17.1297 144.122 16.4098 144.394 15.4918C144.478 15.2832 144.614 15.1475 144.802 15.0849C145.012 15.0224 145.231 15.0119 145.462 15.0537C145.629 15.0745 145.797 15.1475 145.964 15.2727C146.153 15.3979 146.236 15.5648 146.215 15.7735L145.587 19.7168C145.525 20.0089 145.42 20.1967 145.273 20.2802C145.148 20.3428 144.949 20.3741 144.677 20.3741H134.378C133.75 20.3741 133.132 20.3741 132.525 20.3741C131.939 20.3949 131.3 20.4262 130.61 20.468Z" fill="white"/>
<path d="M165.452 20.4262C165.336 20.4262 165.254 20.3857 165.208 20.3045C165.161 20.2234 165.138 20.1364 165.138 20.0437C165.15 19.8467 165.196 19.7365 165.278 19.7134C165.359 19.6902 165.458 19.6786 165.574 19.6786C165.946 19.6786 166.202 19.6148 166.342 19.4873C166.493 19.3482 166.586 19.1802 166.621 18.9831C166.656 18.7745 166.673 18.56 166.673 18.3398L166.708 11.4372C166.708 10.8924 166.615 10.5446 166.429 10.3939C166.243 10.2433 165.946 10.1273 165.539 10.0462C165.365 10.0114 165.249 9.98245 165.191 9.95926C165.132 9.92449 165.103 9.82017 165.103 9.6463C165.103 9.44925 165.173 9.34493 165.313 9.33333C165.452 9.31015 165.615 9.29856 165.801 9.29856C166.452 9.29856 166.976 9.35072 167.371 9.45504C167.778 9.55936 168.133 9.74483 168.435 10.0114C168.749 10.278 169.086 10.6547 169.447 11.1416L174.227 17.4009H174.279L174.244 11.4372C174.244 11.2169 174.227 11.0083 174.192 10.8112C174.157 10.6026 174.064 10.4345 173.913 10.307C173.773 10.1679 173.517 10.0984 173.145 10.0984C173.029 10.0984 172.93 10.0868 172.849 10.0636C172.767 10.0404 172.715 9.93029 172.692 9.73323C172.692 9.6405 172.715 9.55357 172.761 9.47243C172.82 9.39129 172.901 9.35072 173.006 9.35072C173.261 9.36231 173.465 9.3739 173.616 9.3855C173.779 9.3855 173.936 9.39129 174.087 9.40288C174.25 9.40288 174.448 9.40288 174.68 9.40288C174.913 9.40288 175.105 9.40288 175.256 9.40288C175.407 9.39129 175.558 9.3855 175.709 9.3855C175.872 9.3739 176.076 9.36231 176.32 9.35072C176.436 9.35072 176.518 9.39129 176.564 9.47243C176.611 9.55357 176.634 9.6405 176.634 9.73323C176.622 9.93029 176.576 10.0404 176.494 10.0636C176.425 10.0868 176.326 10.0984 176.198 10.0984C175.837 10.0984 175.582 10.1679 175.43 10.307C175.279 10.4345 175.186 10.6026 175.151 10.8112C175.128 11.0083 175.111 11.2169 175.099 11.4372L175.064 20.2002C175.052 20.2929 174.994 20.3509 174.89 20.3741C174.797 20.4088 174.709 20.4262 174.628 20.4262C174.407 20.4262 174.238 20.3509 174.122 20.2002L167.545 11.4372H167.493L167.528 18.3398C167.54 18.56 167.557 18.7745 167.58 18.9831C167.615 19.1802 167.708 19.3482 167.859 19.4873C168.011 19.6148 168.267 19.6786 168.627 19.6786C168.755 19.6786 168.86 19.6902 168.941 19.7134C169.022 19.7365 169.069 19.8467 169.081 20.0437C169.081 20.1364 169.052 20.2234 168.993 20.3045C168.947 20.3857 168.871 20.4262 168.767 20.4262C168.522 20.4146 168.313 20.403 168.139 20.3915C167.976 20.3915 167.813 20.3857 167.65 20.3741C167.499 20.3741 167.307 20.3741 167.075 20.3741C166.842 20.3741 166.65 20.3741 166.499 20.3741C166.359 20.3857 166.214 20.3915 166.063 20.3915C165.912 20.403 165.708 20.4146 165.452 20.4262Z" fill="white"/>
<path d="M179.618 20.5827C178.909 20.5827 178.339 20.3799 177.908 19.9742C177.49 19.5685 177.28 19.0816 177.28 18.5137C177.28 17.9225 177.432 17.4589 177.734 17.1227C178.048 16.7866 178.455 16.5373 178.955 16.3751C179.467 16.2128 180.019 16.1027 180.612 16.0447C181.217 15.9868 181.804 15.9404 182.374 15.9056V14.532C182.374 13.9872 182.235 13.5642 181.955 13.2628C181.688 12.9498 181.229 12.7933 180.577 12.7933C180.252 12.7933 179.944 12.8977 179.653 13.1063C179.374 13.315 179.234 13.6163 179.234 14.0104C179.234 14.1959 179.281 14.3524 179.374 14.4799C179.467 14.6074 179.56 14.7059 179.653 14.7755C179.746 14.845 179.792 14.8914 179.792 14.9146C179.792 14.9609 179.723 15.0479 179.583 15.1754C179.455 15.2913 179.275 15.3492 179.042 15.3492C178.682 15.3492 178.403 15.2159 178.205 14.9493C178.007 14.6827 177.908 14.3872 177.908 14.0626C177.908 13.6221 178.042 13.2744 178.31 13.0194C178.589 12.7644 178.943 12.5789 179.374 12.463C179.804 12.3471 180.24 12.2891 180.682 12.2891C181.205 12.2891 181.711 12.3529 182.2 12.4804C182.7 12.6079 183.107 12.8513 183.421 13.2106C183.746 13.57 183.909 14.109 183.909 14.8276V18.8788C183.921 18.9947 183.95 19.1338 183.996 19.2961C184.043 19.4584 184.13 19.6032 184.258 19.7308C184.398 19.8467 184.584 19.9046 184.816 19.9046C184.898 19.9046 184.962 19.922 185.008 19.9568C185.055 19.98 185.078 20.0553 185.078 20.1828C185.078 20.2871 185.02 20.3683 184.904 20.4262C184.787 20.4842 184.653 20.5248 184.502 20.5479C184.351 20.5711 184.223 20.5827 184.119 20.5827C183.688 20.5827 183.304 20.461 182.967 20.2176C182.63 19.9626 182.432 19.6148 182.374 19.1744C182.118 19.638 181.734 19.9916 181.223 20.235C180.723 20.4668 180.188 20.5827 179.618 20.5827ZM180.176 19.6438C180.572 19.6438 180.932 19.5453 181.258 19.3482C181.595 19.1512 181.862 18.8846 182.06 18.5484C182.269 18.2007 182.374 17.8182 182.374 17.4009V16.4098C181.176 16.491 180.321 16.6822 179.81 16.9836C179.298 17.285 179.042 17.7776 179.042 18.4615C179.042 19.2497 179.42 19.6438 180.176 19.6438Z" fill="white"/>
<path d="M186.213 20.4262C186.132 20.4262 186.062 20.3915 186.004 20.3219C185.958 20.2408 185.934 20.1596 185.934 20.0785C185.946 19.9046 185.987 19.8119 186.056 19.8003C186.138 19.7771 186.231 19.7655 186.336 19.7655C186.661 19.7655 186.882 19.7134 186.998 19.609C187.126 19.4931 187.196 19.3424 187.208 19.157C187.231 18.9715 187.243 18.7803 187.243 18.5832V14.6016C187.243 14.3929 187.231 14.2017 187.208 14.0278C187.196 13.8424 187.132 13.6975 187.016 13.5931C186.9 13.4772 186.679 13.4193 186.353 13.4193C186.248 13.4193 186.15 13.4077 186.056 13.3845C185.975 13.3497 185.934 13.2454 185.934 13.0715C185.934 12.8977 186.027 12.7933 186.213 12.7586C186.748 12.6774 187.155 12.5963 187.435 12.5152C187.725 12.434 187.94 12.3645 188.08 12.3065C188.231 12.2486 188.365 12.2138 188.481 12.2022C188.574 12.1906 188.65 12.208 188.708 12.2543C188.778 12.3007 188.813 12.3934 188.813 12.5325V13.6279H188.865C189.098 13.4077 189.324 13.199 189.545 13.002C189.766 12.7933 190.034 12.6253 190.348 12.4978C190.662 12.3587 191.063 12.2891 191.551 12.2891C192.121 12.2891 192.61 12.4108 193.017 12.6542C193.424 12.8861 193.72 13.2106 193.906 13.6279H193.941C194.174 13.4077 194.418 13.199 194.674 13.002C194.93 12.7933 195.232 12.6253 195.581 12.4978C195.93 12.3587 196.349 12.2891 196.837 12.2891C197.628 12.2891 198.256 12.5267 198.721 13.002C199.186 13.4772 199.419 14.1032 199.419 14.8798V18.5832C199.419 18.7803 199.425 18.9715 199.436 19.157C199.46 19.3424 199.529 19.4931 199.646 19.609C199.774 19.7134 200 19.7655 200.326 19.7655C200.431 19.7655 200.518 19.7771 200.588 19.8003C200.669 19.8119 200.715 19.9046 200.727 20.0785C200.727 20.1596 200.704 20.2408 200.657 20.3219C200.611 20.3915 200.541 20.4262 200.448 20.4262C200.111 20.403 199.797 20.3857 199.506 20.3741C199.227 20.3741 198.93 20.3741 198.616 20.3741C198.302 20.3741 198.006 20.3741 197.727 20.3741C197.448 20.3857 197.139 20.403 196.802 20.4262C196.709 20.4262 196.639 20.3915 196.593 20.3219C196.546 20.2408 196.523 20.1596 196.523 20.0785C196.535 19.9046 196.575 19.8119 196.645 19.8003C196.727 19.7771 196.82 19.7655 196.924 19.7655C197.25 19.7655 197.471 19.7134 197.587 19.609C197.715 19.4931 197.785 19.3424 197.796 19.157C197.82 18.9715 197.831 18.7803 197.831 18.5832V14.8972C197.831 14.5147 197.744 14.2017 197.57 13.9583C197.407 13.7149 197.198 13.5352 196.942 13.4193C196.686 13.3034 196.424 13.2454 196.157 13.2454C195.761 13.2454 195.424 13.3207 195.145 13.4714C194.866 13.6105 194.645 13.7728 194.482 13.9583C194.319 14.1437 194.203 14.306 194.133 14.4451V18.5832C194.133 18.7803 194.133 18.9715 194.133 19.157C194.145 19.3424 194.203 19.4931 194.308 19.609C194.424 19.7134 194.645 19.7655 194.971 19.7655C195.087 19.7655 195.18 19.7771 195.25 19.8003C195.319 19.8119 195.36 19.9046 195.372 20.0785C195.372 20.1596 195.348 20.2408 195.302 20.3219C195.255 20.3915 195.186 20.4262 195.093 20.4262C194.755 20.403 194.453 20.3857 194.186 20.3741C193.918 20.3741 193.627 20.3741 193.313 20.3741C193.011 20.3741 192.726 20.3741 192.459 20.3741C192.203 20.3857 191.906 20.403 191.569 20.4262C191.476 20.4262 191.406 20.3915 191.36 20.3219C191.313 20.2408 191.29 20.1596 191.29 20.0785C191.301 19.9046 191.342 19.8119 191.412 19.8003C191.482 19.7771 191.575 19.7655 191.691 19.7655C192.017 19.7655 192.232 19.7134 192.336 19.609C192.453 19.4931 192.511 19.3424 192.511 19.157C192.522 18.9715 192.528 18.7803 192.528 18.5832V14.8972C192.528 14.3176 192.354 13.9003 192.005 13.6453C191.656 13.3787 191.278 13.2454 190.871 13.2454C190.464 13.2454 190.121 13.3207 189.842 13.4714C189.563 13.6105 189.342 13.7728 189.179 13.9583C189.016 14.1437 188.9 14.306 188.83 14.4451V18.5832C188.83 18.7803 188.836 18.9715 188.848 19.157C188.871 19.3424 188.941 19.4931 189.057 19.609C189.185 19.7134 189.412 19.7655 189.737 19.7655C189.842 19.7655 189.929 19.7771 189.999 19.8003C190.08 19.8119 190.127 19.9046 190.138 20.0785C190.138 20.1596 190.115 20.2408 190.069 20.3219C190.022 20.3915 189.952 20.4262 189.859 20.4262C189.522 20.403 189.208 20.3857 188.917 20.3741C188.638 20.3741 188.342 20.3741 188.028 20.3741C187.714 20.3741 187.417 20.3741 187.138 20.3741C186.859 20.3857 186.551 20.403 186.213 20.4262Z" fill="white"/>
<path d="M205.709 20.5827C204.813 20.5827 204.057 20.3915 203.441 20.0089C202.836 19.6264 202.383 19.1164 202.08 18.4789C201.778 17.8414 201.627 17.1459 201.627 16.3925C201.627 15.8824 201.714 15.3898 201.889 14.9146C202.075 14.4277 202.336 13.9873 202.674 13.5931C203.011 13.1874 203.418 12.8687 203.895 12.6369C204.371 12.405 204.912 12.2891 205.517 12.2891C206.587 12.2891 207.389 12.5673 207.924 13.1237C208.471 13.6685 208.785 14.364 208.866 15.2101C208.866 15.6158 208.75 15.8824 208.517 16.0099C208.296 16.1374 208.006 16.2012 207.645 16.2012H203.406C203.406 16.8735 203.499 17.4762 203.685 18.0094C203.871 18.531 204.162 18.9483 204.558 19.2613C204.965 19.5627 205.5 19.7134 206.162 19.7134C206.651 19.7134 207.07 19.609 207.418 19.4004C207.767 19.1918 208.105 18.8266 208.43 18.305C208.523 18.1891 208.651 18.1833 208.814 18.2876C208.907 18.334 208.965 18.4093 208.988 18.5137C209.012 18.6064 209 18.6875 208.953 18.7571C208.593 19.3251 208.139 19.7713 207.593 20.0959C207.046 20.4204 206.418 20.5827 205.709 20.5827ZM203.406 15.5405H206.25C206.529 15.5405 206.75 15.4883 206.913 15.384C207.087 15.2681 207.18 15.0768 207.192 14.8102C207.192 14.3118 207.052 13.8713 206.773 13.4888C206.505 13.0947 206.087 12.8977 205.517 12.8977C204.935 12.8977 204.447 13.1295 204.052 13.5931C203.668 14.0568 203.453 14.7059 203.406 15.5405Z" fill="white"/>
<path d="M160.01 16.0273C160.01 18.428 158.057 20.3741 155.648 20.3741C153.24 20.3741 151.287 18.428 151.287 16.0273C151.287 13.6267 153.24 11.6806 155.648 11.6806C158.057 11.6806 160.01 13.6267 160.01 16.0273Z" fill="#5BFFC4"/>
</svg>
