<svg width="63" height="63" viewBox="0 0 63 63" fill="none" xmlns="http://www.w3.org/2000/svg">
<g clip-path="url(#clip0_48_59)">
<path fill-rule="evenodd" clip-rule="evenodd" d="M7.07437 16.1309L15.8392 29.2507C13.2064 31.6368 10.1929 33.6213 7.24238 34.1017C7.06388 34.8183 6.95362 35.6531 6.95362 36.6348C6.95362 39.0262 8.3475 43.0582 12.1905 44.3576C12.7365 44.5439 13.2037 44.9193 13.5056 45.4128C17.8684 52.5764 24.8299 57.7503 31.5 57.7503C38.1675 57.7503 45.7905 52.1354 49.4944 45.4128C49.7936 44.9167 50.2609 44.5439 50.8095 44.3576C54.6525 43.0582 56.0464 39.0262 56.0464 36.6348C56.0464 35.9471 55.986 35.3407 55.8994 34.7789C52.5998 34.7606 49.5495 32.4716 47.1502 29.3189L55.944 16.1572C60.5981 23.6647 63 33.1593 63 42.3416C63 54.7788 55.7629 60.2257 44.688 58.2491C40.6219 61.3229 36.1567 63.0003 31.5 63.0003C26.8433 63.0003 22.3755 61.3256 18.3094 58.2491C7.23712 60.2257 0 54.7788 0 42.3416C0 33.1488 2.40712 23.6437 7.07437 16.1309ZM38.8631 45.8197C38.8579 45.8407 36.9757 51.5973 31.5 51.5973C26.2264 51.5973 24.1447 45.8407 24.1369 45.8197H38.8631ZM26.5912 34.7737C26.5912 32.7393 25.2158 31.0908 23.5226 31.0908C21.8295 31.0908 20.454 32.7393 20.454 34.7737C20.454 36.8054 21.8295 38.4539 23.5226 38.4539C25.2158 38.4539 26.5912 36.8054 26.5912 34.7737ZM42.546 34.7737C42.546 36.8054 41.1705 38.4539 39.4774 38.4539C37.7842 38.4539 36.4087 36.8054 36.4087 34.7737C36.4087 32.7393 37.7842 31.0908 39.4774 31.0908C41.1705 31.0908 42.546 32.7393 42.546 34.7737ZM55.125 7.87532C47.3786 2.69094 39.3934 -0.0338084 31.5 0.000316644C23.7143 0.0344416 15.7605 2.76969 7.875 7.87532L18.375 23.6253C28.8697 20.1944 34.1854 20.2364 44.625 23.6253L55.125 7.87532ZM33.6866 3.93782H29.3134V8.31369H24.9375V12.6869H29.3134V17.0628H33.6866V12.6869H38.0625V8.31369H33.6866V3.93782Z" fill="white"/>
</g>
<defs>
<clipPath id="clip0_48_59">
<rect width="63" height="63" fill="white"/>
</clipPath>
</defs>
</svg>
