<svg width="63" height="63" viewBox="0 0 63 63" fill="none" xmlns="http://www.w3.org/2000/svg">
<path fill-rule="evenodd" clip-rule="evenodd" d="M49.6256 36.7499C44.2995 43.0525 36.8629 49.888 28.875 57.7499C13.4059 42.5249 0 31.1482 0 20.026C0 3.87179 21.2992 0.110165 28.875 13.0015C36.3956 0.204664 57.75 3.81666 57.75 20.026C57.75 22.084 57.2906 24.1525 56.4454 26.2499H39.9656C39.3015 26.2499 38.6899 26.6095 38.3644 27.1897L36.2303 30.9959L30.2715 19.3488C29.9775 18.7739 29.4026 18.3933 28.7595 18.3513C28.1138 18.3093 27.4942 18.6059 27.1267 19.1362L22.1918 26.2499H18.9709C18.0626 24.6802 16.3669 23.6249 14.4244 23.6249C11.529 23.6249 9.17437 25.9769 9.17437 28.8749C9.17437 31.7729 11.529 34.1249 14.4244 34.1249C16.3669 34.1249 18.0626 33.0697 18.9709 31.4999H24.1054C24.7039 31.4999 25.263 31.2085 25.6095 30.7203L28.2056 27.0295L34.1276 38.9969C34.4269 39.598 35.028 39.9918 35.6974 40.018C36.3694 40.0469 36.9994 39.7083 37.3485 39.1334L41.9659 31.4999H63V36.7499H49.6256Z" fill="white"/>
</svg>
